<svg width="204" height="204" viewBox="0 0 204 204" fill="none" xmlns="http://www.w3.org/2000/svg">
<rect width="204" height="204" rx="13.6" fill="#B4DBFF"/>
<path d="M50.8902 103.793V129.61C50.8902 133.582 52.3613 134.661 53.7342 135.666C57.8042 138.681 61.1876 141.158 51.6257 161.949C51.2865 162.66 51.1751 163.458 51.3067 164.235C51.4384 165.012 51.8067 165.729 52.3613 166.288C52.7535 166.705 53.2194 167.048 53.7097 167.293C54.2001 167.539 54.6659 167.661 55.1317 167.686C56.0634 167.735 56.9951 167.269 57.5835 166.018V165.896C58.981 163.15 60.2559 160.894 61.3837 158.884C65.8459 150.94 67.9054 147.263 61.5553 137.75L60.3785 135.985L61.8741 134.489C62.4409 133.779 62.858 132.962 63.0999 132.086C63.4966 130.916 63.7116 129.693 63.7374 128.458V105.191L66.0666 104.945C67.4857 104.735 68.8463 104.235 70.0629 103.474C71.7518 102.463 73.2943 101.226 74.6477 99.7967C78.2763 96.021 79.5022 91.6078 80.8506 86.7779C81.1939 85.552 81.5371 84.2771 81.9294 83.0267C82.1746 82.2176 81.9294 81.5802 81.4636 81.2369C80.9385 80.8565 80.2958 80.6741 79.6493 80.722C79.2632 80.7494 78.8952 80.8963 78.5965 81.1423C78.2977 81.3884 78.083 81.7214 77.9821 82.095C77.6597 83.2279 77.3816 84.3729 77.1485 85.5275C76.1187 90.2839 74.9419 95.7022 70.0384 98.203C69.1027 98.6635 68.1149 99.0093 67.0963 99.2328C66.1261 99.4381 65.1432 99.5773 64.1542 99.6496L63.0509 99.7476L62.2173 99.0366C61.1436 98.2118 59.8735 97.6809 58.5323 97.496C57.191 97.3111 55.8247 97.4788 54.5678 97.9824C53.692 98.3365 52.9111 98.8907 52.2877 99.6005C51.3267 100.772 50.8293 102.255 50.8902 103.769V103.793ZM45.668 129.61V103.793C45.5994 101.014 46.5599 98.3071 48.3649 96.1926C49.52 94.8825 50.9636 93.8585 52.5819 93.2015C54.5435 92.3942 56.6728 92.0794 58.784 92.2845C60.8952 92.4896 62.9241 93.2085 64.6936 94.3783C65.1052 94.3225 65.5142 94.2488 65.9195 94.1576C66.529 94.0318 67.1215 93.8343 67.6847 93.5692C70.3571 92.1962 71.2398 88.0773 72.0488 84.4487C72.343 83.1002 72.6127 81.8253 73.005 80.5749C73.3922 79.1828 74.2059 77.9469 75.3316 77.041C76.4574 76.1351 77.8387 75.6047 79.2815 75.5243C81.2363 75.3816 83.1749 75.9667 84.7244 77.167C86.7593 78.7852 87.9117 81.3595 86.931 84.5713C86.5634 85.7679 86.2119 86.9693 85.8767 88.1754C84.3321 93.6918 82.9346 98.6934 78.4234 103.401C76.7807 105.117 74.7948 106.76 72.6863 107.986C71.5131 108.691 70.2627 109.258 68.9596 109.677V128.482C68.9008 131.25 68.1866 133.963 66.8756 136.401C73.8141 147.459 71.2398 152.019 65.944 161.483C64.7916 163.493 63.5413 165.749 62.2663 168.274C61.6772 169.738 60.6372 170.976 59.2971 171.809C57.957 172.642 56.3865 173.027 54.813 172.908C53.6264 172.827 52.4679 172.51 51.4051 171.976C50.3392 171.448 49.3762 170.734 48.561 169.868C47.2792 168.564 46.4311 166.897 46.1327 165.093C45.8343 163.29 46.1001 161.438 46.8939 159.791C54.6659 142.849 52.8516 141.501 50.645 139.883C48.2668 138.118 45.668 136.205 45.668 129.61Z" fill="#001CAF"/>
<path d="M64.963 77.6574C64.963 75.5701 64.1338 73.5683 62.6579 72.0923C61.182 70.6164 59.1802 69.7872 57.0929 69.7872C55.0056 69.7872 53.0038 70.6164 51.5279 72.0923C50.0519 73.5683 49.2228 75.5701 49.2228 77.6574C49.2228 79.7446 50.0519 81.7464 51.5279 83.2224C53.0038 84.6983 55.0056 85.5275 57.0929 85.5275C59.1802 85.5275 61.182 84.6983 62.6579 83.2224C64.1338 81.7464 64.963 79.7446 64.963 77.6574ZM66.3605 68.4143C68.2077 70.2407 69.4686 72.5761 69.9822 75.1225C70.4959 77.6688 70.2391 80.3105 69.2445 82.7102C68.2499 85.1098 66.5626 87.1587 64.3982 88.595C62.2338 90.0314 59.6905 90.7901 57.0929 90.7742C54.4902 90.7951 51.9406 90.0382 49.7708 88.6007C47.601 87.1632 45.91 85.1105 44.9143 82.7057C43.9187 80.3009 43.6638 77.6535 44.1825 75.1029C44.7011 72.5524 45.9695 70.2148 47.8253 68.3897C49.0397 67.1681 50.4837 66.1986 52.0742 65.537C53.6647 64.8755 55.3703 64.5349 57.0929 64.5349C58.8155 64.5349 60.5211 64.8755 62.1116 65.537C63.7021 66.1986 65.1461 67.1681 66.3605 68.3897V68.4143Z" fill="#001CAF"/>
<path d="M83.3267 59.0976C83.3267 60.6582 83.9467 62.1549 85.0502 63.2584C86.1537 64.3619 87.6503 64.9818 89.2109 64.9818C90.7715 64.9818 92.2682 64.3619 93.3717 63.2584C94.4752 62.1549 95.0951 60.6582 95.0951 59.0976C95.0951 57.537 94.4752 56.0403 93.3717 54.9368C92.2682 53.8333 90.7715 53.2134 89.2109 53.2134C88.4373 53.2101 87.6707 53.3601 86.9553 53.6547C86.2399 53.9492 85.59 54.3826 85.0429 54.9296C84.4959 55.4766 84.0626 56.1266 83.768 56.842C83.4735 57.5573 83.3235 58.324 83.3267 59.0976ZM81.3653 66.9432C79.7946 65.396 78.7212 63.4154 78.2822 61.2548C77.8432 59.0942 78.0587 56.8518 78.9011 54.8143C79.7434 52.7768 81.1744 51.0369 83.011 49.8171C84.8475 48.5972 87.0062 47.953 89.2109 47.9666C91.4228 47.943 93.5912 48.5818 95.437 49.8009C97.2828 51.02 98.7215 52.7636 99.568 54.8072C100.414 56.8509 100.63 59.1011 100.187 61.2683C99.7435 63.4355 98.6619 65.4205 97.0811 66.9677C96.0512 68.0033 94.8268 68.8251 93.4783 69.3859C92.1298 69.9467 90.6837 70.2354 89.2232 70.2354C87.7627 70.2354 86.3166 69.9467 84.9681 69.3859C83.6196 68.8251 82.3952 68.0033 81.3653 66.9677V66.9432Z" fill="#001CAF"/>
<path d="M92.3984 71.577H120.79L120.177 74.6908L114.587 103.425L114.17 105.534H95.9534L95.5611 103.401L89.824 74.6908L89.2356 71.577H92.3984ZM114.464 76.8238H95.5366L100.293 100.312H109.904L114.464 76.8238Z" fill="#001CAF"/>
<path d="M94.188 71.577H138.859V76.8238H94.188V71.577Z" fill="#001CAF"/>
<path d="M95.0461 86.7779H114.954V92.0001H95.0707L95.0461 86.7779Z" fill="#001CAF"/>
<path d="M102.401 104.259V74.8378H107.624V104.259H102.401Z" fill="#001CAF"/>
<path d="M120.544 68.9781V50.6635H159.772V110.805H120.544V79.4226H125.791V105.583H154.55V55.8857H125.816V68.9781H120.544Z" fill="#001CAF"/>
<path d="M141.58 106V173.57H136.358V106H141.58Z" fill="#001CAF"/>
</svg>
