<svg width="293" height="313" viewBox="0 0 293 313" fill="none" xmlns="http://www.w3.org/2000/svg">
<g clip-path="url(#clip0_292_1322)">
<rect y="6.00412" width="139.295" height="121.883" rx="8.40574" fill="#FFBCBC"/>
<mask id="mask0_292_1322" style="mask-type:alpha" maskUnits="userSpaceOnUse" x="-55" y="-32" width="140" height="139">
<rect x="-54.0369" y="-31.2213" width="138.094" height="138.094" fill="#D9D9D9"/>
</mask>
<g mask="url(#mask0_292_1322)">
<path d="M-31.2724 32.0719H-14.586C-15.1715 28.4277 -16.2937 25.0233 -17.9526 21.8587C-19.6115 18.694 -21.7095 15.865 -24.2466 13.3716C-26.003 16.1527 -27.4911 19.1016 -28.7109 22.2183C-29.9307 25.335 -30.7845 28.6195 -31.2724 32.0719ZM45.1337 32.0719H61.8201C61.3322 28.6195 60.4783 25.335 59.2586 22.2183C58.0388 19.1016 56.5507 16.1527 54.7942 13.3716C52.2571 15.865 50.1591 18.694 48.5002 21.8587C46.8414 25.0233 45.7192 28.4277 45.1337 32.0719ZM-24.2466 62.28C-21.7095 59.7867 -19.6115 56.9576 -17.9526 53.793C-16.2937 50.6283 -15.1715 47.2239 -14.586 43.5798H-31.2724C-30.7845 47.0321 -29.9307 50.3167 -28.7109 53.4334C-27.4911 56.5501 -26.003 59.499 -24.2466 62.28ZM54.7942 62.28C56.5507 59.499 58.0388 56.5501 59.2586 53.4334C60.4783 50.3167 61.3322 47.0321 61.8201 43.5798H45.1337C45.7192 47.2239 46.8414 50.6283 48.5002 53.793C50.1591 56.9576 52.2571 59.7867 54.7942 62.28ZM-2.58353 32.0719H9.41896V-7.91789C4.24715 -7.1507 -0.55872 -5.73619 -4.99866 -3.67437C-9.43861 -1.61254 -13.415 1.0966 -16.928 4.45306C-13.1223 8.09721 -9.97531 12.2448 -7.48698 16.8959C-4.99866 21.547 -3.36418 26.6057 -2.58353 32.0719ZM21.1287 32.0719H33.1312C33.9118 26.6057 35.5463 21.547 38.0347 16.8959C40.523 12.2448 43.67 8.09721 47.4756 4.45306C43.9627 1.0966 39.9863 -1.61254 35.5463 -3.67437C31.1064 -5.73619 26.3005 -7.1507 21.1287 -7.91789V32.0719ZM9.41896 83.5696V43.5798H-2.58353C-3.36418 49.046 -4.99866 54.1047 -7.48698 58.7557C-9.97531 63.4068 -13.1223 67.5545 -16.928 71.1986C-13.415 74.5551 -9.43861 77.2642 -4.99866 79.326C-0.55872 81.3879 4.24715 82.8024 9.41896 83.5696ZM21.1287 83.5696C26.3005 82.8024 31.1064 81.3879 35.5463 79.326C39.9863 77.2642 43.9627 74.5551 47.4756 71.1986C43.67 67.5545 40.523 63.4068 38.0347 58.7557C35.5463 54.1047 33.9118 49.046 33.1312 43.5798H21.1287V83.5696ZM15.2738 95.3651C7.17459 95.3651 -0.436745 93.8547 -7.56017 90.8339C-14.6836 87.8131 -20.88 83.7134 -26.1494 78.5349C-31.4188 73.3563 -35.5904 67.2668 -38.6642 60.2662C-41.738 53.2655 -43.2749 45.7854 -43.2749 37.8258C-43.2749 29.8662 -41.738 22.3861 -38.6642 15.3855C-35.5904 8.3849 -31.4188 2.29533 -26.1494 -2.8832C-20.88 -8.06174 -14.6836 -12.1614 -7.56017 -15.1822C-0.436745 -18.203 7.17459 -19.7134 15.2738 -19.7134C23.3731 -19.7134 30.9844 -18.203 38.1078 -15.1822C45.2313 -12.1614 51.4277 -8.06174 56.6971 -2.8832C61.9665 2.29533 66.138 8.3849 69.2119 15.3855C72.2857 22.3861 73.8226 29.8662 73.8226 37.8258C73.8226 45.7854 72.2857 53.2655 69.2119 60.2662C66.138 67.2668 61.9665 73.3563 56.6971 78.5349C51.4277 83.7134 45.2313 87.8131 38.1078 90.8339C30.9844 93.8547 23.3731 95.3651 15.2738 95.3651Z" fill="#BB0000"/>
</g>
</g>
<g clip-path="url(#clip1_292_1322)">
<rect y="148.902" width="139.295" height="163.912" rx="8.40574" fill="#FFBCF8"/>
<mask id="mask1_292_1322" style="mask-type:alpha" maskUnits="userSpaceOnUse" x="-45" y="199" width="152" height="152">
<rect x="-44.4304" y="199.336" width="150.703" height="150.703" fill="#D9D9D9"/>
</mask>
<g mask="url(#mask1_292_1322)">
<path d="M31.5691 337.48C22.7303 337.48 14.424 335.832 6.6502 332.535C-1.12363 329.239 -7.8858 324.765 -13.6363 319.113C-19.3868 313.462 -23.9393 306.816 -27.2937 299.177C-30.6482 291.537 -32.3254 283.374 -32.3254 274.687C-32.3254 266.001 -30.6482 257.838 -27.2937 250.198C-23.9393 242.558 -19.3868 235.913 -13.6363 230.262C-7.8858 224.61 -1.12363 220.136 6.6502 216.84C14.424 213.543 22.7303 211.895 31.5691 211.895C40.4078 211.895 48.7141 213.543 56.4879 216.84C64.2617 220.136 71.0239 224.61 76.7744 230.262C82.5249 235.913 87.0774 242.558 90.4318 250.198C93.7863 257.838 95.4635 266.001 95.4635 274.687C95.4635 283.374 93.7863 291.537 90.4318 299.177C87.0774 306.816 82.5249 313.462 76.7744 319.113C71.0239 324.765 64.2617 329.239 56.4879 332.535C48.7141 335.832 40.4078 337.48 31.5691 337.48ZM63.5163 258.989L72.1421 256.164L74.6978 247.687C71.2901 242.663 67.1902 238.346 62.3981 234.736C57.6061 231.125 52.3348 228.43 46.5843 226.651L37.9585 232.616V241.407L63.5163 258.989ZM-0.378193 258.989L25.1796 241.407V232.616L16.5538 226.651C10.8033 228.43 5.53205 231.125 0.73996 234.736C-4.05213 238.346 -8.15202 242.663 -11.5597 247.687L-9.00395 256.164L-0.378193 258.989ZM-7.08711 307.34L0.26075 306.712L5.05284 298.235L-4.21186 270.92L-13.1571 267.78L-19.5465 272.49C-19.5465 279.292 -18.5881 285.493 -16.6713 291.092C-14.7545 296.691 -11.5597 302.107 -7.08711 307.34ZM31.5691 324.922C34.3378 324.922 37.0533 324.712 39.7156 324.294C42.3779 323.875 44.9869 323.247 47.5427 322.41L52.0153 312.991L47.8621 306.084H15.276L11.1228 312.991L15.5954 322.41C18.1512 323.247 20.7602 323.875 23.4225 324.294C26.0848 324.712 28.8003 324.922 31.5691 324.922ZM17.1928 293.525H45.9453L54.8905 268.408L31.5691 252.396L8.56704 268.408L17.1928 293.525ZM70.2252 307.34C74.6978 302.107 77.8926 296.691 79.8094 291.092C81.7262 285.493 82.6846 279.292 82.6846 272.49L76.2952 268.094L67.35 270.92L58.0853 298.235L62.8774 306.712L70.2252 307.34Z" fill="#7C067E"/>
</g>
</g>
<g clip-path="url(#clip2_292_1322)">
<rect x="153.705" y="195.133" width="139.295" height="117.68" rx="8.40574" fill="#BCFFBF"/>
<mask id="mask2_292_1322" style="mask-type:alpha" maskUnits="userSpaceOnUse" x="215" y="237" width="109" height="109">
<rect x="215.547" y="237.762" width="107.473" height="107.473" fill="#D9D9D9"/>
</mask>
<g mask="url(#mask2_292_1322)">
<path d="M242.149 312.994C245.567 310.381 248.244 307.209 250.18 303.478C252.117 299.746 253.085 295.753 253.085 291.499C253.085 287.245 252.117 283.252 250.18 279.52C248.244 275.788 245.567 272.616 242.149 270.004C239.795 273.139 237.991 276.535 236.738 280.192C235.485 283.849 234.859 287.618 234.859 291.499C234.859 295.38 235.485 299.149 236.738 302.806C237.991 306.463 239.795 309.859 242.149 312.994ZM271.312 327.323C275.488 327.323 279.532 326.67 283.444 325.364C287.355 324.058 290.905 322.099 294.095 319.487C289.766 316.054 286.405 311.893 284.013 307.004C281.621 302.116 280.425 296.947 280.425 291.499C280.425 286.051 281.621 280.882 284.013 275.994C286.405 271.105 289.766 266.944 294.095 263.511C290.905 260.899 287.355 258.94 283.444 257.634C279.532 256.328 275.488 255.674 271.312 255.674C267.135 255.674 263.091 256.328 259.18 257.634C255.268 258.94 251.718 260.899 248.528 263.511C252.857 266.944 256.218 271.105 258.61 275.994C261.002 280.882 262.198 286.051 262.198 291.499C262.198 296.947 261.002 302.116 258.61 307.004C256.218 311.893 252.857 316.054 248.528 319.487C251.718 322.099 255.268 324.058 259.18 325.364C263.091 326.67 267.135 327.323 271.312 327.323ZM300.474 312.994C302.828 309.859 304.632 306.463 305.885 302.806C307.138 299.149 307.765 295.38 307.765 291.499C307.765 287.618 307.138 283.849 305.885 280.192C304.632 276.535 302.828 273.139 300.474 270.004C297.056 272.616 294.379 275.788 292.443 279.52C290.506 283.252 289.538 287.245 289.538 291.499C289.538 295.753 290.506 299.746 292.443 303.478C294.379 307.209 297.056 310.381 300.474 312.994ZM271.312 336.28C265.008 336.28 259.085 335.104 253.541 332.753C247.997 330.402 243.174 327.211 239.073 323.181C234.973 319.151 231.726 314.412 229.334 308.963C226.941 303.515 225.745 297.694 225.745 291.499C225.745 285.304 226.941 279.483 229.334 274.035C231.726 268.586 234.973 263.847 239.073 259.817C243.174 255.786 247.997 252.596 253.541 250.245C259.085 247.894 265.008 246.718 271.312 246.718C277.615 246.718 283.538 247.894 289.082 250.245C294.626 252.596 299.449 255.786 303.55 259.817C307.651 263.847 310.897 268.586 313.289 274.035C315.682 279.483 316.878 285.304 316.878 291.499C316.878 297.694 315.682 303.515 313.289 308.963C310.897 314.412 307.651 319.151 303.55 323.181C299.449 327.211 294.626 330.402 289.082 332.753C283.538 335.104 277.615 336.28 271.312 336.28Z" fill="#128000"/>
</g>
</g>
<g clip-path="url(#clip3_292_1322)">
<rect x="153.705" width="139.295" height="169.916" rx="8.40574" fill="#FEFFDC"/>
<mask id="mask3_292_1322" style="mask-type:alpha" maskUnits="userSpaceOnUse" x="194" y="-29" width="139" height="139">
<rect x="194.533" y="-28.8197" width="138.094" height="138.094" fill="#D9D9D9"/>
</mask>
<g mask="url(#mask3_292_1322)">
<path d="M309.712 25.5549C306.687 17.2117 301.759 10.2351 294.928 4.62502C288.098 -0.98506 280.242 -4.36549 271.362 -5.51628V3.69001L309.712 25.5549ZM242.088 46.8445L259.653 36.7751V-5.51628C256.53 -5.22858 253.505 -4.53331 250.578 -3.43048C247.65 -2.32764 244.82 -1.00903 242.088 0.525349V46.8445ZM222.474 58.0646L230.378 53.4615V10.0193C226.573 14.2389 223.67 18.9379 221.669 24.1165C219.669 29.295 218.668 34.6653 218.668 40.2274C218.668 43.2962 218.986 46.341 219.62 49.3618C220.254 52.3826 221.206 55.2836 222.474 58.0646ZM242.088 79.9296L283.072 56.9138L265.507 46.8445L228.329 68.134C230.281 70.5315 232.379 72.7371 234.623 74.751C236.867 76.7649 239.356 78.4911 242.088 79.9296ZM265.507 86.2589C272.826 86.2589 279.754 84.6286 286.292 81.368C292.83 78.1075 298.295 73.6002 302.686 67.8463L294.782 63.5309L256.14 85.3958C257.701 85.6835 259.262 85.8992 260.824 86.0431C262.385 86.1869 263.946 86.2589 265.507 86.2589ZM308.541 58.0646C309.809 55.2836 310.761 52.3826 311.395 49.3618C312.029 46.341 312.346 43.2962 312.346 40.2274L271.362 16.924V36.7751L308.541 58.0646ZM265.507 97.7667C257.408 97.7667 249.797 96.2563 242.673 93.2355C235.55 90.2147 229.354 86.115 224.084 80.9365C218.815 75.758 214.643 69.6684 211.569 62.6678C208.496 55.6672 206.959 48.187 206.959 40.2274C206.959 32.2678 208.496 24.7877 211.569 17.7871C214.643 10.7865 218.815 4.69695 224.084 -0.48159C229.354 -5.66013 235.55 -9.7598 242.673 -12.7806C249.797 -15.8014 257.408 -17.3118 265.507 -17.3118C273.607 -17.3118 281.218 -15.8014 288.341 -12.7806C295.465 -9.7598 301.661 -5.66013 306.931 -0.48159C312.2 4.69695 316.372 10.7865 319.446 17.7871C322.519 24.7877 324.056 32.2678 324.056 40.2274C324.056 48.187 322.519 55.6672 319.446 62.6678C316.372 69.6684 312.2 75.758 306.931 80.9365C301.661 86.115 295.465 90.2147 288.341 93.2355C281.218 96.2563 273.607 97.7667 265.507 97.7667Z" fill="#C89000"/>
</g>
</g>
<defs>
<clipPath id="clip0_292_1322">
<rect y="6.00412" width="139.295" height="121.883" rx="8.40574" fill="white"/>
</clipPath>
<clipPath id="clip1_292_1322">
<rect y="148.902" width="139.295" height="163.912" rx="8.40574" fill="white"/>
</clipPath>
<clipPath id="clip2_292_1322">
<rect x="153.705" y="195.133" width="139.295" height="117.68" rx="8.40574" fill="white"/>
</clipPath>
<clipPath id="clip3_292_1322">
<rect x="153.705" width="139.295" height="169.916" rx="8.40574" fill="white"/>
</clipPath>
</defs>
</svg>
