<svg width="164" height="30" viewBox="0 0 164 30" fill="none" xmlns="http://www.w3.org/2000/svg">
<path d="M40.8599 24.0688H45.3341V6.08659H51.4612V1.84039H34.8184V6.08659H40.8599V24.0688Z" fill="black"/>
<path d="M60.534 24.1828C61.6454 24.1828 62.7283 23.9549 63.7543 23.4989C64.7517 23.0714 65.6351 22.4445 66.3761 21.675L63.3553 18.8252C62.6143 19.6232 61.6169 20.0506 60.534 20.0506C59.1376 20.0506 57.9122 19.3097 57.2282 18.2268H68.5419V16.1464C68.5419 14.0091 67.7155 11.9857 66.2051 10.4753C64.6947 8.96492 62.6713 8.10999 60.534 8.10999C58.3681 8.10999 56.3733 8.96492 54.8344 10.4753C53.324 11.9857 52.4976 14.0091 52.4976 16.1464C52.4976 18.2838 53.324 20.3071 54.8344 21.8175C56.3733 23.3279 58.3681 24.1828 60.534 24.1828ZM57.2282 14.0946C57.9122 12.9831 59.1376 12.2422 60.534 12.2422C61.9019 12.2422 63.1273 12.9831 63.8397 14.0946H57.2282Z" fill="black"/>
<path d="M84.319 8.02448L84.3475 8.93641C83.2076 8.36645 81.9537 8.05297 80.6712 8.05297C79.5883 8.05297 78.5054 8.25246 77.508 8.67993C76.539 9.1074 75.6841 9.67736 74.9147 10.4183C74.1737 11.1593 73.6037 12.0427 73.1763 13.0116C72.7773 14.009 72.5493 15.092 72.5493 16.1749C72.5493 17.2578 72.7773 18.3407 73.1763 19.3382C73.6037 20.3071 74.1737 21.162 74.9147 21.9315C75.6841 22.6724 76.539 23.2424 77.508 23.6699C78.5054 24.0688 79.5883 24.2968 80.6712 24.2968C81.9537 24.2968 83.2076 23.9833 84.3475 23.4134L84.319 24.0688H88.5937V8.02448H84.319ZM82.6091 19.4807C82.0391 19.8226 81.3552 20.0221 80.6712 20.0221C78.5624 20.0221 76.824 18.2837 76.824 16.1749C76.824 14.066 78.5624 12.3277 80.6712 12.3277C81.4122 12.3277 82.1531 12.5272 82.7516 12.9546C83.3785 13.3251 83.863 13.8951 84.148 14.5505C84.4045 15.0635 84.5185 15.6049 84.5185 16.1749C84.5185 16.8588 84.3475 17.5143 84.0055 18.1128C83.6635 18.6827 83.2076 19.1672 82.6091 19.4807Z" fill="black"/>
<path d="M115.792 10.2758C114.51 8.99341 112.772 8.28096 110.948 8.28096C109.181 8.28096 107.499 8.93641 106.245 10.1618C104.963 8.93641 103.282 8.28096 101.515 8.28096C100.631 8.28096 99.7479 8.45194 98.95 8.79392V8.02448H94.6753V24.0688H98.95V15.1205C98.95 13.7241 100.09 12.5557 101.515 12.5557C102.94 12.5557 104.108 13.7241 104.108 15.1205V24.0688H108.383V15.1205C108.383 13.7241 109.523 12.5557 110.948 12.5557C112.373 12.5557 113.541 13.7241 113.541 15.1205V24.0688H117.816V15.1205C117.816 13.2966 117.103 11.5867 115.792 10.2758Z" fill="black"/>
<path d="M132.71 24.2398C133.879 24.2398 135.047 24.0118 136.13 23.5559C137.156 23.0999 138.096 22.4729 138.923 21.675C139.721 20.8485 140.348 19.9081 140.804 18.8822C141.26 17.7708 141.488 16.6308 141.488 15.4339V1.84039H137.013V15.4339C137.013 17.8278 135.075 19.7656 132.71 19.7656C130.316 19.7656 128.378 17.8278 128.378 15.4339V1.84039H123.904V15.4339C123.904 16.6308 124.132 17.7708 124.588 18.8822C125.044 19.9081 125.671 20.8485 126.469 21.675C127.296 22.4729 128.236 23.0999 129.262 23.5559C130.373 24.0118 131.513 24.2398 132.71 24.2398Z" fill="black"/>
<path d="M163.373 13.0117C162.946 12.0428 162.376 11.1878 161.635 10.4184C160.865 9.67742 160.01 9.10746 159.041 8.67999C158.044 8.25253 156.989 8.05304 155.878 8.05304C154.795 8.05304 153.712 8.25253 152.715 8.67999C151.746 9.10746 150.891 9.67742 150.121 10.4184C149.38 11.1593 148.811 12.0428 148.383 13.0117C147.984 14.0091 147.756 15.0635 147.756 16.175V28.2866L152.031 29.7115V23.328C152.259 23.4419 152.487 23.5559 152.715 23.6414C153.712 24.0689 154.795 24.2969 155.878 24.2969C156.961 24.2969 158.044 24.0689 159.041 23.6414C160.01 23.2425 160.865 22.6725 161.635 21.9031C162.376 21.1621 162.946 20.3072 163.373 19.3382C163.8 18.3408 164 17.2579 164 16.175C164 15.0635 163.8 14.0091 163.373 13.0117ZM155.878 20.0222C153.769 20.0222 152.031 18.2838 152.031 16.175C152.031 14.0661 153.769 12.3277 155.878 12.3277C157.987 12.3277 159.725 14.0661 159.725 16.175C159.725 18.2838 157.987 20.0222 155.878 20.0222Z" fill="black"/>
<g clip-path="url(#clip0_277_1514)">
<circle cx="3.99288" cy="3.993" r="9.3171" fill="black"/>
<circle cx="22.247" cy="22.6272" r="9.3171" fill="black"/>
</g>
<rect x="0.504615" y="0.504615" width="25.2308" height="25.2308" rx="5.58002" stroke="black" stroke-width="1.00923"/>
<defs>
<clipPath id="clip0_277_1514">
<rect width="26.24" height="26.24" rx="6.08464" fill="white"/>
</clipPath>
</defs>
</svg>
