<svg width="164" height="29" viewBox="0 0 164 29" fill="none" xmlns="http://www.w3.org/2000/svg">
<path d="M40.8599 23.0688H45.3341V5.08659H51.4612V0.840393H34.8184V5.08659H40.8599V23.0688Z" fill="white"/>
<path d="M60.534 23.1828C61.6454 23.1828 62.7283 22.9549 63.7543 22.4989C64.7517 22.0714 65.6351 21.4445 66.3761 20.675L63.3553 17.8252C62.6143 18.6232 61.6169 19.0506 60.534 19.0506C59.1376 19.0506 57.9122 18.3097 57.2282 17.2268H68.5419V15.1464C68.5419 13.0091 67.7155 10.9857 66.2051 9.47532C64.6947 7.96492 62.6713 7.10999 60.534 7.10999C58.3681 7.10999 56.3733 7.96492 54.8344 9.47532C53.324 10.9857 52.4976 13.0091 52.4976 15.1464C52.4976 17.2838 53.324 19.3071 54.8344 20.8175C56.3733 22.3279 58.3681 23.1828 60.534 23.1828ZM57.2282 13.0946C57.9122 11.9831 59.1376 11.2422 60.534 11.2422C61.9019 11.2422 63.1273 11.9831 63.8397 13.0946H57.2282Z" fill="white"/>
<path d="M84.319 7.02448L84.3475 7.93641C83.2076 7.36645 81.9537 7.05297 80.6712 7.05297C79.5883 7.05297 78.5054 7.25246 77.508 7.67993C76.539 8.1074 75.6841 8.67736 74.9147 9.4183C74.1737 10.1593 73.6037 11.0427 73.1763 12.0116C72.7773 13.009 72.5493 14.092 72.5493 15.1749C72.5493 16.2578 72.7773 17.3407 73.1763 18.3382C73.6037 19.3071 74.1737 20.162 74.9147 20.9315C75.6841 21.6724 76.539 22.2424 77.508 22.6699C78.5054 23.0688 79.5883 23.2968 80.6712 23.2968C81.9537 23.2968 83.2076 22.9833 84.3475 22.4134L84.319 23.0688H88.5937V7.02448H84.319ZM82.6091 18.4807C82.0391 18.8226 81.3552 19.0221 80.6712 19.0221C78.5624 19.0221 76.824 17.2837 76.824 15.1749C76.824 13.066 78.5624 11.3277 80.6712 11.3277C81.4122 11.3277 82.1531 11.5272 82.7516 11.9546C83.3785 12.3251 83.863 12.8951 84.148 13.5505C84.4045 14.0635 84.5185 14.6049 84.5185 15.1749C84.5185 15.8588 84.3475 16.5143 84.0055 17.1128C83.6635 17.6827 83.2076 18.1672 82.6091 18.4807Z" fill="white"/>
<path d="M115.792 9.27582C114.51 7.99341 112.772 7.28096 110.948 7.28096C109.181 7.28096 107.499 7.93641 106.245 9.16182C104.963 7.93641 103.282 7.28096 101.515 7.28096C100.631 7.28096 99.7479 7.45194 98.95 7.79392V7.02448H94.6753V23.0688H98.95V14.1205C98.95 12.7241 100.09 11.5557 101.515 11.5557C102.94 11.5557 104.108 12.7241 104.108 14.1205V23.0688H108.383V14.1205C108.383 12.7241 109.523 11.5557 110.948 11.5557C112.373 11.5557 113.541 12.7241 113.541 14.1205V23.0688H117.816V14.1205C117.816 12.2966 117.103 10.5867 115.792 9.27582Z" fill="white"/>
<path d="M132.71 23.2398C133.879 23.2398 135.047 23.0118 136.13 22.5559C137.156 22.0999 138.096 21.4729 138.923 20.675C139.721 19.8485 140.348 18.9081 140.804 17.8822C141.26 16.7708 141.488 15.6308 141.488 14.4339V0.840393H137.013V14.4339C137.013 16.8278 135.075 18.7656 132.71 18.7656C130.316 18.7656 128.378 16.8278 128.378 14.4339V0.840393H123.904V14.4339C123.904 15.6308 124.132 16.7708 124.588 17.8822C125.044 18.9081 125.671 19.8485 126.469 20.675C127.296 21.4729 128.236 22.0999 129.262 22.5559C130.373 23.0118 131.513 23.2398 132.71 23.2398Z" fill="white"/>
<path d="M163.373 12.0117C162.946 11.0428 162.376 10.1878 161.635 9.41837C160.865 8.67742 160.01 8.10746 159.041 7.67999C158.044 7.25253 156.989 7.05304 155.878 7.05304C154.795 7.05304 153.712 7.25253 152.715 7.67999C151.746 8.10746 150.891 8.67742 150.121 9.41837C149.38 10.1593 148.811 11.0428 148.383 12.0117C147.984 13.0091 147.756 14.0635 147.756 15.175V27.2866L152.031 28.7115V22.328C152.259 22.4419 152.487 22.5559 152.715 22.6414C153.712 23.0689 154.795 23.2969 155.878 23.2969C156.961 23.2969 158.044 23.0689 159.041 22.6414C160.01 22.2425 160.865 21.6725 161.635 20.9031C162.376 20.1621 162.946 19.3072 163.373 18.3382C163.8 17.3408 164 16.2579 164 15.175C164 14.0635 163.8 13.0091 163.373 12.0117ZM155.878 19.0222C153.769 19.0222 152.031 17.2838 152.031 15.175C152.031 13.0661 153.769 11.3277 155.878 11.3277C157.987 11.3277 159.725 13.0661 159.725 15.175C159.725 17.2838 157.987 19.0222 155.878 19.0222Z" fill="white"/>
<g clip-path="url(#clip0_277_1526)">
<circle cx="3.99288" cy="4.993" r="9.3171" fill="white"/>
<circle cx="22.247" cy="23.6272" r="9.3171" fill="white"/>
</g>
<rect x="0.504615" y="1.50462" width="25.2308" height="25.2308" rx="5.58002" stroke="white" stroke-width="1.00923"/>
<defs>
<clipPath id="clip0_277_1526">
<rect y="1" width="26.24" height="26.24" rx="6.08464" fill="white"/>
</clipPath>
</defs>
</svg>
