<svg width="204" height="204" viewBox="0 0 204 204" fill="none" xmlns="http://www.w3.org/2000/svg">
<rect width="204" height="204" rx="13.6" fill="#FFF6A8"/>
<g clip-path="url(#clip0_256_1489)">
<path d="M58.9215 177.762C43.0438 170.247 48.4373 146.309 65.9513 146.431C83.5864 146.491 88.6164 170.671 72.5569 177.944C68.6178 179.701 62.8606 179.64 58.9215 177.762ZM72.6781 173.217C76.496 170.55 77.708 168.126 77.708 162.854C77.708 158.975 77.4656 157.884 76.2536 156.066C73.5871 152.248 71.163 151.036 65.8907 151.036C60.6183 151.036 58.1942 152.248 55.5884 156.066C53.8915 158.49 53.2855 164.066 54.3157 167.217C55.1641 169.702 58.1942 172.974 60.7395 174.186C63.6484 175.459 70.1328 174.974 72.6781 173.217Z" fill="#BD9F00"/>
<path d="M90.7376 178.065C90.3133 177.277 90.1315 160.733 90.1315 128.735V80.617L83.2229 80.2534C77.4657 80.011 75.7689 79.6474 72.86 78.3141C64.2545 74.1932 57.1641 62.3758 56.6793 51.2857C56.4975 46.4375 58.255 45.7103 61.7093 49.2858C64.9212 52.6189 70.6783 57.0429 74.3751 58.9821L77.7082 60.7396L106.494 61.0426L135.28 61.3456L138.795 63.1031C147.643 67.4058 154.612 79.0413 155.097 90.1921C155.279 95.0402 153.521 95.7675 150.067 92.1919C144.37 86.253 134.977 80.4352 131.159 80.4352C128.796 80.4352 127.099 79.405 127.099 78.0111C127.099 74.375 135.159 75.8294 142.976 80.9806C145.4 82.5563 147.764 84.3137 148.249 84.8591C150.794 88.0104 150.552 84.2531 147.764 78.4353C145.461 73.6478 142.31 69.9511 138.734 67.83L135.886 66.1938L107.403 65.8907C80.011 65.5877 78.799 65.5271 75.7083 64.2545C72.0722 62.8 65.406 58.6185 63.7697 56.8005C60.982 53.7098 61.1032 56.9823 64.0727 63.1031C66.4362 68.133 70.0117 72.0721 73.8902 74.0114C76.7991 75.4658 77.6476 75.587 84.7986 75.587C91.7678 75.587 92.6768 75.7082 93.7676 76.7991C94.9797 78.0111 94.9797 78.7989 94.9797 125.341V172.671L97.1613 170.065C101.282 165.157 104.676 156.733 104.676 151.521C104.676 148.249 105.524 146.491 107.1 146.491C108.736 146.491 109.161 147.461 108.979 151.158C108.676 159.46 104.797 168.126 98.434 174.732C93.8888 179.398 91.9496 180.246 90.7376 178.065Z" fill="#BD9F00"/>
<path d="M137.704 158.066C121.887 153.218 111.1 146.006 107.1 137.704C105.646 134.674 104.676 129.22 104.676 123.584C104.676 119.22 105.403 117.402 107.1 117.402C108.979 117.402 109.524 119.342 109.524 126.311C109.524 132.189 109.706 133.28 111.1 136.068C114.009 141.885 122.251 148.006 132.553 151.885C134.371 152.612 135.947 153.157 136.068 153.157C136.128 153.157 133.947 150.43 131.159 147.097C125.826 140.855 122.554 135.219 120.675 129.523C119.766 126.614 119.584 123.099 119.342 102.434C119.22 85.7075 119.342 78.3747 119.826 77.4657C120.675 75.89 122.614 75.8294 123.463 77.3445C123.826 78.1323 124.069 87.162 124.069 102.494C124.069 126.432 124.069 126.493 125.523 130.371C128.311 137.825 134.795 146.188 143.098 153.097C150.673 159.46 148.491 161.46 137.704 158.066Z" fill="#BD9F00"/>
<path d="M100.131 56.5581C84.2532 49.0434 89.6468 25.1057 107.161 25.2269C124.796 25.2875 129.826 49.4676 113.766 56.7399C109.827 58.4973 104.07 58.4367 100.131 56.5581ZM113.888 52.0129C117.705 49.3464 118.918 46.9224 118.918 41.65C118.918 37.7715 118.675 36.6806 117.463 34.8626C114.797 31.0447 112.373 29.8326 107.1 29.8326C101.828 29.8326 99.4037 31.0447 96.7978 34.8626C95.101 37.2867 94.495 42.862 95.5252 46.0133C96.3736 48.498 99.4037 51.7705 101.949 52.9825C104.858 54.2552 111.342 53.7704 113.888 52.0129Z" fill="#BD9F00"/>
</g>
<defs>
<clipPath id="clip0_256_1489">
<rect width="155.141" height="155.141" fill="white" transform="translate(24.6814 24.6815)"/>
</clipPath>
</defs>
</svg>
