<svg width="204" height="204" viewBox="0 0 204 204" fill="none" xmlns="http://www.w3.org/2000/svg">
<rect width="204" height="204" rx="13.6" fill="#FFF1A8"/>
<rect width="204" height="204" rx="13.6" fill="#FFF1A8"/>
<path d="M110.017 173.569C109.142 172.665 108.294 170.179 107.249 165.291C106.288 160.828 106.034 152.833 106.712 148.736C107.588 143.538 108.577 140.487 110.865 135.91C113.831 129.921 118.351 124.44 123.493 120.626C130.5 115.4 133.409 110.964 133.664 104.947C133.805 101.528 133.353 99.4096 131.799 96.3584C130.387 93.5616 115.696 67.2031 115.385 66.8924C115.244 66.7511 114.425 67.1184 113.521 67.6834C106.486 72.2036 91.5976 79.8879 82.8679 83.5889C69.3638 89.2674 57.8373 92.2902 47.7799 92.8553C45.2373 92.9965 44.2202 92.94 42.7511 92.5445C36.2251 90.8494 31.7332 85.1709 31.7332 78.6731C31.7332 74.8027 32.7219 72.1471 35.3211 69.0677C37.5812 66.3556 41.4233 64.3498 45.0677 63.9825C51.735 63.3045 58.3741 68.2484 60.1822 75.2547C60.8037 77.7126 60.5777 81.244 59.6454 83.5889C59.2499 84.5494 59.0521 85.3404 59.1934 85.3404C60.5777 85.3404 69.8441 82.4588 74.8163 80.4812C85.2693 76.3283 98.8864 69.3502 110.385 62.2592C113.012 60.6488 115.526 59.2363 115.95 59.1515C117.193 58.8973 118.351 59.547 119.284 61.0161C119.736 61.7224 123.437 68.3614 127.505 75.735C131.573 83.1086 135.585 90.2562 136.404 91.6122C139.625 96.9517 140.811 103.704 139.512 109.213C138.127 115.117 134.172 120.4 127.392 125.429C122.561 129.045 119.114 133.029 116.515 138.142C113.803 143.453 112.842 147.38 112.616 153.85C112.447 158.991 112.842 162.24 114.227 167.439C115.3 171.394 115.3 172.326 114.255 173.456C113.577 174.191 113.238 174.332 112.108 174.332C111.063 174.332 110.639 174.191 110.017 173.569ZM48.8534 86.1597C50.8027 85.4252 52.5543 83.8714 53.4866 82.035C54.0516 80.9332 54.1929 80.2552 54.1929 78.4189C54.1929 76.413 54.0799 75.9893 53.3171 74.605C52.3001 72.7969 50.2942 71.1301 48.4861 70.6498C46.8193 70.1695 43.7399 70.4238 42.3274 71.1583C38.3439 73.1924 36.7619 78.4754 38.9655 82.5153C40.9713 86.2162 44.87 87.6288 48.8534 86.1597Z" fill="#BD9F00"/>
<path d="M168.159 173.541C166.351 172.609 156.124 163.794 147.253 155.545C138.325 147.211 127.872 135.797 127.194 133.65C126.488 131.39 128.522 129.271 130.811 129.865C131.658 130.062 132.308 130.656 134.229 132.944C141.913 142.126 154.005 153.793 168.469 165.998C170.108 167.354 171.662 168.823 171.916 169.219C172.877 170.659 172.425 172.891 171.04 173.626C169.939 174.191 169.373 174.163 168.159 173.541Z" fill="#BD9F00"/>
<path d="M114.509 117.632C113.944 117.095 111.684 112.772 107.334 103.902C103.859 96.7822 100.949 90.906 100.864 90.8212C100.807 90.7365 99.2254 91.5275 97.3326 92.5445C86.9926 98.223 74.1948 102.489 61.284 104.551C56.3118 105.342 50.2377 105.964 47.4126 105.964C45.2938 105.964 44.9548 105.879 44.192 105.229C42.4969 103.817 42.8359 100.992 44.8135 100.201C45.2938 100.003 47.1301 99.7486 48.8252 99.6356C66.5105 98.5621 84.45 93.2226 98.1236 84.8884C101.627 82.7696 102.672 82.6001 104.056 83.8714C104.621 84.3799 107.136 89.2109 112.08 99.3531C116.007 107.433 119.34 114.326 119.425 114.665C119.736 115.598 119.114 117.18 118.182 117.829C117.024 118.649 115.555 118.564 114.509 117.632Z" fill="#BD9F00"/>
<path d="M94.2536 60.3664C88.9706 59.0668 84.3939 54.5749 83.0378 49.2919C81.6818 43.9807 83.2074 38.5847 87.219 34.6295C90.2984 31.5784 93.5191 30.2223 97.8133 30.2223C101.881 30.2223 105.243 31.5218 108.153 34.234C111.572 37.4546 113.097 40.9578 113.097 45.591C113.069 55.3659 103.774 62.6547 94.2536 60.3664ZM102.023 53.2753C107.08 50.5349 108.238 43.8394 104.424 39.5735C102.898 37.8784 101.684 37.2003 99.4518 36.7766C95.5249 36.042 91.7675 37.9349 89.8746 41.551C88.9989 43.2461 88.8011 46.6928 89.4791 48.4726C90.9764 52.343 94.0558 54.3489 98.2653 54.1794C100.13 54.0946 100.808 53.9533 102.023 53.2753Z" fill="#BD9F00"/>
</svg>
